<?xml version="1.0" encoding="utf-8"?>
<!-- Generator: Adobe Illustrator 16.0.0, SVG Export Plug-In . SVG Version: 6.00 Build 0)  -->
<!DOCTYPE svg PUBLIC "-//W3C//DTD SVG 1.1//EN" "http://www.w3.org/Graphics/SVG/1.1/DTD/svg11.dtd">
<svg version="1.1" id="Layer_1" xmlns="http://www.w3.org/2000/svg" xmlns:xlink="http://www.w3.org/1999/xlink" x="0px" y="0px"
	 width="216px" height="144px" viewBox="0 0 216 144" enable-background="new 0 0 216 144" xml:space="preserve">
<path opacity="0.65" fill="#FFFFFF" d="M109.785,38.746V20.625H92.588V2.72H73.599v17.905H45.907V2.72H26.918v17.905H9.933v18.121
	h16.985v33.222H9.933v18.123h16.985V108h18.989V90.091h27.692V108h18.989V90.091h17.197V71.968H92.588V38.746H109.785z
	 M73.599,71.968H45.907V38.746h27.692V71.968z"/>
<g opacity="0.65">
	<path fill="#FFFFFF" d="M167.984,13.765c-5.689,0-11.083,1.29-15.971,3.571v-6.704h-23.691v131.431h23.691v-48.55
		c4.888,2.283,10.281,3.573,15.971,3.573c21.823,0,39.512-18.65,39.512-41.661C207.496,32.415,189.808,13.765,167.984,13.765z
		 M167.984,72.197c-8.787,0-15.905-7.507-15.905-16.771c0-9.267,7.118-16.772,15.905-16.772c8.786,0,15.906,7.505,15.906,16.772
		C183.891,64.69,176.771,72.197,167.984,72.197z"/>
</g>
</svg>
